HIERARCHY
ROOT hip
{
	OFFSET 0.000000 0.000000 0.000000 
	CHANNELS 6 Xposition Yposition Zposition Xrotation Zrotation Yrotation
	JOINT abdomen
	{
		OFFSET 0.000000 3.402643 0.000000 
		CHANNELS 3 Xrotation Zrotation Yrotation
		JOINT chest
		{
			OFFSET 0.000000 8.438565 -0.680529 
			CHANNELS 3 Xrotation Zrotation Yrotation
			JOINT neck
			{
				OFFSET 0.000000 10.207942 -0.272212 
				CHANNELS 3 Xrotation Zrotation Yrotation
				JOINT head
				{
					OFFSET 0.000000 3.130431 0.000000 
					CHANNELS 3 Xrotation Zrotation Yrotation
					End Site
					{
						OFFSET 0.000000 3.130435 0.000000 
					}
				}
			}
			JOINT lCollar
			{
				OFFSET 3.470700 6.669187 -0.816635 
				CHANNELS 3 Yrotation Zrotation Xrotation
				JOINT lShldr
				{
					OFFSET 3.198488 0.000000 0.000000 
					CHANNELS 3 Zrotation Yrotation Xrotation
					JOINT lForeArm
					{
						OFFSET 10.139888 0.000000 0.000000 
						CHANNELS 3 Yrotation Zrotation Xrotation
						JOINT lHand
						{
							OFFSET 8.370511 0.000000 0.000000 
							CHANNELS 3 Zrotation Yrotation Xrotation
							End Site
							{
								OFFSET 4.083176 0.000000 0.000000 
							}
						}
					}
				}
			}
			JOINT rCollar
			{
				OFFSET -3.470700 6.669187 -0.816635 
				CHANNELS 3 Yrotation Zrotation Xrotation
				JOINT rShldr
				{
					OFFSET -3.198488 0.000000 0.000000 
					CHANNELS 3 Zrotation Yrotation Xrotation
					JOINT rForeArm
					{
						OFFSET -10.139888 0.000000 0.000000 
						CHANNELS 3 Yrotation Zrotation Xrotation
						JOINT rHand
						{
							OFFSET -8.370511 0.000000 0.000000 
							CHANNELS 3 Zrotation Yrotation Xrotation
							End Site
							{
								OFFSET -4.083176 0.000000 0.000000 
							}
						}
					}
				}
			}
		}
	}
	JOINT lThigh
	{
		OFFSET 5.308129 -1.633274 1.361059 
		CHANNELS 3 Xrotation Zrotation Yrotation
		JOINT lShin
		{
			OFFSET -2.041588 -20.007561 0.000000 
			CHANNELS 3 Xrotation Zrotation Yrotation
			JOINT lFoot
			{
				OFFSET 0.000000 -19.190928 -1.224953 
				CHANNELS 3 Xrotation Yrotation Zrotation
				End Site
				{
					OFFSET 0.000000 -2.449906 4.627600 
				}
			}
		}
	}
	JOINT rThigh
	{
		OFFSET -5.308129 -1.633274 1.361059 
		CHANNELS 3 Xrotation Zrotation Yrotation
		JOINT rShin
		{
			OFFSET 2.041588 -20.007561 0.000000 
			CHANNELS 3 Xrotation Zrotation Yrotation
			JOINT rFoot
			{
				OFFSET 0.000000 -19.190928 -1.224953 
				CHANNELS 3 Xrotation Yrotation Zrotation
				End Site
				{
					OFFSET 0.000000 -2.449906 4.627600 
				}
			}
		}
	}
}
MOTION
Frames: 16
Frame Time: 0.016667
-1.632870 45.474693 31.122112 -3.730810 -0.769850 -24.861900 -22.190800 -0.327870 1.683490 14.608900 0.738193 0.723883 -16.084200 13.030400 -4.900920 -8.603520 0.000000 0.000000 2.000000 -2.000000 0.000000 66.621201 -37.958801 86.736000 37.910500 -0.322714 0.084061 5.543960 -0.535960 -144.212997 -2.000000 2.000000 0.000000 -63.260502 41.715801 78.056702 -29.560900 0.333769 0.067457 6.233180 2.376020 -135.785995 -0.308165 -7.942217 -5.134655 28.665335 3.224524 2.009662 -6.136754 11.330891 1.407291 -1.748633 5.990772 15.627126 33.328648 -3.151129 -2.297759 -11.531619 -18.512146 -2.537730 
-1.492559 45.455746 30.880587 -3.681680 -0.253382 -24.983700 -22.016199 -0.521490 1.695610 14.520700 0.903169 0.685767 -17.989300 13.461200 -5.393050 -8.603520 0.000000 0.000000 2.000000 -2.000000 0.000000 61.811401 -37.636700 91.660202 42.324600 -0.315929 0.092112 5.557540 -0.438375 -145.278000 -2.000000 2.000000 0.000000 -62.470901 43.100700 74.771400 -29.677999 0.333630 0.067700 6.428320 1.764730 -130.470001 -0.456393 -8.199621 -5.235149 27.860102 3.201473 1.964121 -6.037672 10.468952 1.354963 -2.617222 4.866035 14.612315 33.644428 -3.140859 -2.320645 -11.947251 -15.894425 -2.192447 
-1.373414 45.561802 30.630522 -3.759770 0.097446 -25.358000 -21.829500 -0.556405 1.853050 14.325000 1.106700 0.748326 -19.742201 13.902200 -5.859230 -8.603520 0.000000 0.000000 2.000000 -2.000000 0.000000 56.327900 -37.411201 96.613403 46.660599 -0.308680 0.099490 5.559560 -0.322320 -146.518997 -2.000000 2.000000 0.000000 -60.984402 44.202801 72.680801 -30.381201 0.332791 0.069153 6.503370 1.450870 -127.792999 -0.501550 -8.389629 -5.501770 27.168303 3.215037 1.916708 -5.218719 9.838871 1.138211 -3.221365 3.849502 14.554614 33.870586 -3.137529 -2.326695 -11.555609 -13.335116 -1.584366 
-1.318997 45.752617 30.415730 -3.468850 -1.969050 -25.984301 -21.550200 0.200868 2.009850 14.013100 0.766459 0.947249 -20.397301 13.943200 -5.975600 -8.603520 0.000000 0.000000 2.000000 -2.000000 0.000000 49.826900 -37.184399 102.253998 51.016102 -0.300858 0.106328 5.569390 -0.153884 -148.315994 -2.000000 2.000000 0.000000 -58.799999 45.139801 72.009300 -31.738600 0.331120 0.071927 6.517170 1.377410 -127.169998 -0.789009 -6.302658 -5.917754 28.696224 3.290566 1.985932 -5.414314 9.767688 1.124993 -2.456965 5.565627 15.824763 32.561211 -3.153099 -2.249308 -9.713410 -11.824118 -0.843053 
-1.257862 46.006268 30.225878 -2.745620 -1.882600 -26.677401 -21.555300 0.257252 2.355090 14.150200 0.456118 1.140190 -19.379700 12.946000 -5.449150 -8.603520 0.000000 0.000000 2.000000 -2.000000 0.000000 42.631802 -36.526199 108.436996 55.596199 -0.292097 0.112856 5.572990 -0.054546 -149.389999 -2.000000 2.000000 0.000000 -55.023300 45.102299 74.194000 -33.721100 0.328562 0.075907 6.517880 1.376470 -127.139999 -1.680534 -5.981033 -5.436222 28.377010 3.245980 1.988329 -4.140087 9.889457 0.986228 -3.357169 5.385039 17.170208 32.023758 -3.125639 -2.238447 -7.859837 -10.142149 -0.255965 
-1.187774 46.246544 30.010077 -2.383030 -0.770817 -27.194500 -21.665001 0.199409 2.200660 14.110400 0.960686 1.034060 -19.165800 12.196200 -4.505430 -8.603520 0.000000 0.000000 2.000000 -2.000000 0.000000 34.029499 -34.556702 115.761002 60.156799 -0.282884 0.118640 5.578230 0.004442 -149.985992 -2.000000 2.000000 0.000000 -52.017399 45.220901 76.642197 -36.025799 0.325418 0.080418 6.516540 1.401010 -127.355003 -2.261584 -6.817319 -5.444808 26.888960 3.166087 1.918441 -2.332541 10.516168 0.803218 -4.935666 4.142869 17.840364 32.479317 -3.096818 -2.273492 -6.523640 -8.220169 0.182971 
-1.126966 46.446194 29.776075 -2.128910 0.136624 -27.632000 -21.676100 0.308159 2.073510 14.011500 1.484410 0.962577 -19.482901 11.381500 -3.789940 -8.603520 0.000000 0.000000 2.000000 -2.000000 0.000000 25.186100 -31.804300 122.912003 64.815002 -0.273028 0.123772 5.573120 0.029942 -150.250000 -2.000000 2.000000 0.000000 -48.851200 44.539001 80.116203 -38.515999 0.321820 0.085147 6.491270 1.476530 -128.026993 -2.720672 -7.534616 -5.632926 25.595383 3.103451 1.851472 -0.895480 11.282499 0.673629 -6.326508 3.050373 17.978737 32.935982 -3.052339 -2.304342 -5.394007 -6.303518 0.483726 
-1.093655 46.577564 29.531965 -1.748090 -0.409965 -28.112499 -21.366100 0.868743 2.512370 14.002300 1.251530 1.262500 -20.009800 10.175900 -3.881800 -8.603520 0.000000 0.000000 2.000000 -2.000000 0.000000 16.717800 -29.139299 129.110001 69.717300 -0.262243 0.128290 5.577870 0.038472 -150.337006 -2.000000 2.000000 0.000000 -44.918201 41.991699 85.052101 -41.045300 0.317959 0.089785 6.463810 1.637300 -129.350998 -3.142473 -6.824360 -5.707980 25.832905 3.100270 1.877591 -0.856411 11.851168 0.703753 -6.748368 3.336693 17.716085 32.516449 -3.022994 -2.291889 -4.127003 -4.521331 0.743236 
-1.116340 46.591187 29.290329 -1.475520 -2.011050 -28.844700 -20.949699 1.386140 2.334570 13.914900 1.067010 1.242970 -19.929501 9.890690 -2.844440 -8.603520 0.000000 0.000000 2.000000 -2.000000 0.000000 8.886470 -25.457399 135.367996 72.402901 -0.256182 0.130369 5.571950 0.081338 -150.776993 -2.000000 2.000000 0.000000 -42.309299 39.892502 88.515602 -43.633202 0.313801 0.094349 6.376120 1.935450 -131.960007 -3.368003 -5.193285 -5.600781 27.233997 3.163728 1.933297 -2.002026 12.243378 0.933273 -6.072417 4.771492 18.243979 31.403370 -3.041253 -2.223441 -3.248152 -3.596500 0.925290 
-1.156027 46.486176 29.062841 -1.339100 -2.430980 -29.552601 -20.671000 1.650820 2.122510 13.914300 1.309510 1.156150 -19.794600 9.647480 -1.947660 -8.603520 0.000000 0.000000 2.000000 -2.000000 0.000000 1.311500 -21.394400 141.143005 74.053299 -0.252412 0.131505 5.575810 0.107280 -151.089005 -2.000000 2.000000 0.000000 -40.674198 38.632801 89.873001 -45.264099 0.311076 0.097127 6.346810 2.041570 -132.845993 -3.339142 -4.726293 -5.873530 27.392511 3.236012 1.928242 -3.350443 12.744318 1.229553 -6.142214 5.111304 18.907101 31.229103 -3.024070 -2.240576 -3.434904 -2.333697 1.041422 
-1.210894 46.246029 28.867933 -1.289800 -1.942870 -30.268801 -20.535200 1.624080 2.051150 14.069700 1.620420 1.104910 -19.633400 9.133660 -1.334630 -8.603520 0.000000 0.000000 2.000000 -2.000000 0.000000 -5.568460 -17.380400 146.373001 74.824799 -0.250638 0.131998 5.578640 0.150693 -151.498993 -2.000000 2.000000 0.000000 -39.256500 37.587898 90.435699 -46.308998 0.309289 0.098866 6.344720 2.043840 -132.904007 -3.183186 -5.123724 -6.323585 26.603537 3.239805 1.889244 -5.017547 13.236690 1.713203 -6.783485 4.605622 19.397812 31.780088 -3.011725 -2.250004 -4.770786 -0.776064 1.164473 
-1.279083 45.853870 28.724480 -1.230590 -0.810360 -31.017700 -20.500500 1.275440 2.317400 14.431200 1.611840 1.194300 -19.509199 8.056880 -1.112450 -8.603520 0.000000 0.000000 2.000000 -2.000000 0.000000 -11.480800 -13.923400 151.151001 74.834503 -0.250616 0.132004 5.573710 0.221017 -152.251007 -2.000000 2.000000 0.000000 -37.495998 36.025398 91.363197 -47.168400 0.307795 0.100271 6.345460 2.061250 -133.011002 -2.876773 -6.041636 -6.790170 25.183628 3.230001 1.794656 -7.230327 13.629382 2.331488 -7.837945 3.470214 19.498375 32.599354 -2.982410 -2.309106 -6.908096 1.060974 1.343130 
-1.390084 45.336189 28.574957 -1.474660 -0.488120 -31.481600 -20.276400 1.110030 2.265580 14.664900 1.845670 1.128030 -19.600401 8.160160 -0.744736 -8.603520 0.000000 0.000000 2.000000 -2.000000 0.000000 -17.108101 -10.283000 154.746994 74.512299 -0.251357 0.131801 5.570630 0.194674 -152.046005 -2.000000 2.000000 0.000000 -36.207500 34.765598 91.177399 -48.086399 0.306177 0.101747 6.351550 2.050840 -132.914001 -2.530073 -6.536408 -7.124608 25.172291 3.239175 1.787055 -10.137778 14.396818 3.201538 -7.729622 3.094674 19.371115 32.990669 -2.996690 -2.317616 -10.135576 1.645422 1.574759 
-1.504692 44.856026 28.410494 -1.455730 -1.708430 -31.831600 -19.877501 1.234670 2.180820 14.734200 1.554440 1.111100 -20.292801 8.109200 -0.583470 -8.603520 0.000000 0.000000 2.000000 -2.000000 0.000000 -22.793301 -6.976150 157.505997 74.483002 -0.251425 0.131783 5.570470 0.115985 -151.216003 -2.000000 2.000000 0.000000 -34.129398 33.828098 90.503502 -49.844200 0.303013 0.104501 6.360010 2.001290 -132.485001 -2.316511 -5.620844 -7.167471 26.580938 3.330805 1.850444 -13.815344 15.190892 4.297360 -6.736721 4.480121 19.239140 32.549660 -2.990797 -2.312163 -12.477122 0.937388 1.556422 
-1.611852 44.470875 28.216934 -1.388440 -2.850730 -32.020901 -19.536400 1.271190 2.139270 14.666600 1.253120 1.101230 -21.351999 8.178220 -0.749233 -8.603520 0.000000 0.000000 2.000000 -2.000000 0.000000 -28.722099 -4.178740 159.501007 74.609901 -0.251133 0.131863 5.577540 0.055575 -150.513000 -2.000000 2.000000 0.000000 -30.877199 32.490200 90.620499 -52.969200 0.297186 0.109152 6.358510 2.021210 -132.660004 -2.300632 -4.658621 -6.889449 27.948605 3.358019 1.931002 -17.017178 15.789968 5.324286 -5.901412 6.067337 19.323753 32.246040 -2.977953 -2.292790 -14.299469 -0.750336 1.225395 
-1.700498 44.237995 27.980350 -1.466010 -2.284410 -32.011902 -19.495600 0.842252 2.218890 14.480500 1.427490 1.068810 -22.555901 8.596680 -1.385100 -8.603520 0.000000 0.000000 2.000000 -2.000000 0.000000 -35.080399 -2.066300 160.863998 74.727097 -0.250863 0.131937 5.577060 0.072756 -150.718002 -2.000000 2.000000 0.000000 -26.233000 29.863100 92.622002 -57.988800 0.287321 0.115938 6.293030 2.216160 -134.384003 -2.732718 -5.114349 -6.259723 27.977581 3.279628 1.932079 -18.512865 16.043215 5.982430 -6.364004 6.342083 19.786890 32.859890 -2.930417 -2.329893 -15.707191 -3.169035 0.573729 
